<mxfile host="Electron" modified="2024-04-09T16:58:57.747Z" agent="Mozilla/5.0 (Windows NT 10.0; Win64; x64) AppleWebKit/537.36 (KHTML, like Gecko) draw.io/22.0.3 Chrome/114.0.5735.289 Electron/25.8.4 Safari/537.36" etag="eJQe-6mXvsLdD5ce_927" version="22.0.3" type="device">
  <diagram name="第 1 页" id="nhCs0hrqKpqIJ9Cs7s1S">
    <mxGraphModel dx="1036" dy="606" grid="1" gridSize="10" guides="1" tooltips="1" connect="1" arrows="1" fold="1" page="1" pageScale="1" pageWidth="827" pageHeight="1169" math="0" shadow="0">
      <root>
        <mxCell id="0" />
        <mxCell id="1" parent="0" />
        <mxCell id="9AYwzwZM53dPQlKz6TOB-31" value="" style="rounded=0;whiteSpace=wrap;html=1;strokeColor=none;" parent="1" vertex="1">
          <mxGeometry x="60" width="480" height="220" as="geometry" />
        </mxCell>
        <mxCell id="EqT0d9yoY_PJOsiz8gr6-11" value="" style="endArrow=classic;html=1;rounded=0;" parent="1" source="9AYwzwZM53dPQlKz6TOB-1" target="EqT0d9yoY_PJOsiz8gr6-12" edge="1">
          <mxGeometry width="50" height="50" relative="1" as="geometry">
            <mxPoint x="236" y="55" as="sourcePoint" />
            <mxPoint x="406" y="8" as="targetPoint" />
          </mxGeometry>
        </mxCell>
        <mxCell id="EqT0d9yoY_PJOsiz8gr6-12" value="&lt;b&gt;&lt;font style=&quot;font-size: 16px;&quot;&gt;Conv&lt;br&gt;Encoder&lt;/font&gt;&lt;/b&gt;" style="rounded=1;whiteSpace=wrap;html=1;fillColor=#ffe6cc;strokeColor=#d79b00;" parent="1" vertex="1">
          <mxGeometry x="260" y="70" width="80" height="80" as="geometry" />
        </mxCell>
        <mxCell id="EqT0d9yoY_PJOsiz8gr6-14" value="&lt;font style=&quot;font-size: 14px;&quot;&gt;k matrices&lt;/font&gt;" style="text;html=1;align=center;verticalAlign=middle;resizable=0;points=[];autosize=1;strokeColor=none;fillColor=none;" parent="1" vertex="1">
          <mxGeometry x="60" y="95" width="90" height="30" as="geometry" />
        </mxCell>
        <mxCell id="EqT0d9yoY_PJOsiz8gr6-24" value="" style="endArrow=classic;html=1;rounded=0;" parent="1" source="EqT0d9yoY_PJOsiz8gr6-12" target="9AYwzwZM53dPQlKz6TOB-21" edge="1">
          <mxGeometry width="50" height="50" relative="1" as="geometry">
            <mxPoint x="216" y="90" as="sourcePoint" />
            <mxPoint x="376" y="66.25" as="targetPoint" />
          </mxGeometry>
        </mxCell>
        <mxCell id="EqT0d9yoY_PJOsiz8gr6-25" value="" style="endArrow=classic;html=1;rounded=0;" parent="1" source="EqT0d9yoY_PJOsiz8gr6-12" target="9AYwzwZM53dPQlKz6TOB-25" edge="1">
          <mxGeometry width="50" height="50" relative="1" as="geometry">
            <mxPoint x="356" y="141" as="sourcePoint" />
            <mxPoint x="376" y="153.75" as="targetPoint" />
          </mxGeometry>
        </mxCell>
        <mxCell id="EqT0d9yoY_PJOsiz8gr6-26" value="&lt;font style=&quot;font-size: 14px;&quot;&gt;r matrices&lt;/font&gt;" style="text;html=1;align=center;verticalAlign=middle;resizable=0;points=[];autosize=1;strokeColor=none;fillColor=none;" parent="1" vertex="1">
          <mxGeometry x="455" y="95" width="80" height="30" as="geometry" />
        </mxCell>
        <mxCell id="czv-a2nJ618KkXbS3twf-1" value="" style="group" parent="1" vertex="1" connectable="0">
          <mxGeometry x="200" y="80" width="20" height="60" as="geometry" />
        </mxCell>
        <mxCell id="EqT0d9yoY_PJOsiz8gr6-4" value="" style="shape=waypoint;sketch=0;fillStyle=solid;size=6;pointerEvents=1;points=[];fillColor=none;resizable=0;rotatable=0;perimeter=centerPerimeter;snapToPoint=1;" parent="czv-a2nJ618KkXbS3twf-1" vertex="1">
          <mxGeometry width="20" height="20" as="geometry" />
        </mxCell>
        <mxCell id="EqT0d9yoY_PJOsiz8gr6-5" value="" style="shape=waypoint;sketch=0;fillStyle=solid;size=6;pointerEvents=1;points=[];fillColor=none;resizable=0;rotatable=0;perimeter=centerPerimeter;snapToPoint=1;" parent="czv-a2nJ618KkXbS3twf-1" vertex="1">
          <mxGeometry y="20" width="20" height="20" as="geometry" />
        </mxCell>
        <mxCell id="EqT0d9yoY_PJOsiz8gr6-6" value="" style="shape=waypoint;sketch=0;fillStyle=solid;size=6;pointerEvents=1;points=[];fillColor=none;resizable=0;rotatable=0;perimeter=centerPerimeter;snapToPoint=1;" parent="czv-a2nJ618KkXbS3twf-1" vertex="1">
          <mxGeometry y="40" width="20" height="20" as="geometry" />
        </mxCell>
        <mxCell id="czv-a2nJ618KkXbS3twf-2" value="" style="group" parent="1" vertex="1" connectable="0">
          <mxGeometry x="376" y="80" width="20" height="60" as="geometry" />
        </mxCell>
        <mxCell id="czv-a2nJ618KkXbS3twf-3" value="" style="shape=waypoint;sketch=0;fillStyle=solid;size=6;pointerEvents=1;points=[];fillColor=none;resizable=0;rotatable=0;perimeter=centerPerimeter;snapToPoint=1;" parent="czv-a2nJ618KkXbS3twf-2" vertex="1">
          <mxGeometry width="20" height="20" as="geometry" />
        </mxCell>
        <mxCell id="czv-a2nJ618KkXbS3twf-4" value="" style="shape=waypoint;sketch=0;fillStyle=solid;size=6;pointerEvents=1;points=[];fillColor=none;resizable=0;rotatable=0;perimeter=centerPerimeter;snapToPoint=1;" parent="czv-a2nJ618KkXbS3twf-2" vertex="1">
          <mxGeometry y="20" width="20" height="20" as="geometry" />
        </mxCell>
        <mxCell id="czv-a2nJ618KkXbS3twf-5" value="" style="shape=waypoint;sketch=0;fillStyle=solid;size=6;pointerEvents=1;points=[];fillColor=none;resizable=0;rotatable=0;perimeter=centerPerimeter;snapToPoint=1;" parent="czv-a2nJ618KkXbS3twf-2" vertex="1">
          <mxGeometry y="40" width="20" height="20" as="geometry" />
        </mxCell>
        <mxCell id="czv-a2nJ618KkXbS3twf-6" value="" style="shape=curlyBracket;whiteSpace=wrap;html=1;rounded=1;labelPosition=left;verticalLabelPosition=middle;align=right;verticalAlign=middle;" parent="1" vertex="1">
          <mxGeometry x="140" y="40" width="20" height="140" as="geometry" />
        </mxCell>
        <mxCell id="czv-a2nJ618KkXbS3twf-7" value="" style="shape=curlyBracket;whiteSpace=wrap;html=1;rounded=1;flipH=1;labelPosition=right;verticalLabelPosition=middle;align=left;verticalAlign=middle;" parent="1" vertex="1">
          <mxGeometry x="440" y="40" width="20" height="140" as="geometry" />
        </mxCell>
        <mxCell id="9AYwzwZM53dPQlKz6TOB-8" value="" style="group" parent="1" vertex="1" connectable="0">
          <mxGeometry x="160" width="80" height="60" as="geometry" />
        </mxCell>
        <mxCell id="EqT0d9yoY_PJOsiz8gr6-7" value="" style="endArrow=classic;startArrow=classic;html=1;rounded=0;entryX=0.652;entryY=1.046;entryDx=0;entryDy=0;entryPerimeter=0;" parent="9AYwzwZM53dPQlKz6TOB-8" target="9AYwzwZM53dPQlKz6TOB-5" edge="1">
          <mxGeometry width="50" height="50" relative="1" as="geometry">
            <mxPoint x="40" y="40" as="sourcePoint" />
            <mxPoint x="20" y="70" as="targetPoint" />
          </mxGeometry>
        </mxCell>
        <mxCell id="9AYwzwZM53dPQlKz6TOB-5" value="N" style="text;html=1;align=center;verticalAlign=middle;resizable=0;points=[];autosize=1;strokeColor=none;fillColor=none;" parent="9AYwzwZM53dPQlKz6TOB-8" vertex="1">
          <mxGeometry y="30" width="30" height="30" as="geometry" />
        </mxCell>
        <mxCell id="9AYwzwZM53dPQlKz6TOB-1" value="" style="shape=parallelogram;perimeter=parallelogramPerimeter;whiteSpace=wrap;html=1;fixedSize=1;fillColor=#e1d5e7;strokeColor=#9673a6;" parent="9AYwzwZM53dPQlKz6TOB-8" vertex="1">
          <mxGeometry x="30" y="40" width="50" height="20" as="geometry" />
        </mxCell>
        <mxCell id="9AYwzwZM53dPQlKz6TOB-3" value="" style="endArrow=classic;startArrow=classic;html=1;rounded=0;" parent="9AYwzwZM53dPQlKz6TOB-8" edge="1">
          <mxGeometry width="50" height="50" relative="1" as="geometry">
            <mxPoint x="80" y="30" as="sourcePoint" />
            <mxPoint x="50" y="30" as="targetPoint" />
          </mxGeometry>
        </mxCell>
        <mxCell id="9AYwzwZM53dPQlKz6TOB-7" value="N&#39;" style="text;html=1;align=center;verticalAlign=middle;resizable=0;points=[];autosize=1;strokeColor=none;fillColor=none;" parent="9AYwzwZM53dPQlKz6TOB-8" vertex="1">
          <mxGeometry x="50" width="30" height="30" as="geometry" />
        </mxCell>
        <mxCell id="9AYwzwZM53dPQlKz6TOB-17" value="" style="endArrow=classic;html=1;rounded=0;" parent="1" source="9AYwzwZM53dPQlKz6TOB-12" target="EqT0d9yoY_PJOsiz8gr6-12" edge="1">
          <mxGeometry width="50" height="50" relative="1" as="geometry">
            <mxPoint x="290" y="260" as="sourcePoint" />
            <mxPoint x="340" y="210" as="targetPoint" />
          </mxGeometry>
        </mxCell>
        <mxCell id="9AYwzwZM53dPQlKz6TOB-10" value="" style="endArrow=classic;startArrow=classic;html=1;rounded=0;" parent="1" edge="1">
          <mxGeometry width="50" height="50" relative="1" as="geometry">
            <mxPoint x="200" y="160" as="sourcePoint" />
            <mxPoint x="180" y="180" as="targetPoint" />
          </mxGeometry>
        </mxCell>
        <mxCell id="9AYwzwZM53dPQlKz6TOB-11" value="N" style="text;html=1;align=center;verticalAlign=middle;resizable=0;points=[];autosize=1;strokeColor=none;fillColor=none;" parent="1" vertex="1">
          <mxGeometry x="160" y="150" width="30" height="30" as="geometry" />
        </mxCell>
        <mxCell id="9AYwzwZM53dPQlKz6TOB-12" value="" style="shape=parallelogram;perimeter=parallelogramPerimeter;whiteSpace=wrap;html=1;fixedSize=1;fillColor=#e1d5e7;strokeColor=#9673a6;" parent="1" vertex="1">
          <mxGeometry x="190" y="160" width="50" height="20" as="geometry" />
        </mxCell>
        <mxCell id="9AYwzwZM53dPQlKz6TOB-13" value="" style="endArrow=classic;startArrow=classic;html=1;rounded=0;" parent="1" edge="1">
          <mxGeometry width="50" height="50" relative="1" as="geometry">
            <mxPoint x="220" y="190" as="sourcePoint" />
            <mxPoint x="190" y="190" as="targetPoint" />
          </mxGeometry>
        </mxCell>
        <mxCell id="9AYwzwZM53dPQlKz6TOB-14" value="N&#39;" style="text;html=1;align=center;verticalAlign=middle;resizable=0;points=[];autosize=1;strokeColor=none;fillColor=none;" parent="1" vertex="1">
          <mxGeometry x="190" y="190" width="30" height="30" as="geometry" />
        </mxCell>
        <mxCell id="9AYwzwZM53dPQlKz6TOB-29" value="" style="group" parent="1" vertex="1" connectable="0">
          <mxGeometry x="360" y="160" width="80" height="60" as="geometry" />
        </mxCell>
        <mxCell id="9AYwzwZM53dPQlKz6TOB-24" value="" style="endArrow=classic;startArrow=classic;html=1;rounded=0;" parent="9AYwzwZM53dPQlKz6TOB-29" edge="1">
          <mxGeometry width="50" height="50" relative="1" as="geometry">
            <mxPoint x="60" as="sourcePoint" />
            <mxPoint x="40" y="20" as="targetPoint" />
          </mxGeometry>
        </mxCell>
        <mxCell id="9AYwzwZM53dPQlKz6TOB-25" value="" style="shape=parallelogram;perimeter=parallelogramPerimeter;whiteSpace=wrap;html=1;fixedSize=1;fillColor=#ffe6cc;strokeColor=#d79b00;" parent="9AYwzwZM53dPQlKz6TOB-29" vertex="1">
          <mxGeometry width="50" height="20" as="geometry" />
        </mxCell>
        <mxCell id="9AYwzwZM53dPQlKz6TOB-26" value="" style="endArrow=classic;startArrow=classic;html=1;rounded=0;" parent="9AYwzwZM53dPQlKz6TOB-29" edge="1">
          <mxGeometry width="50" height="50" relative="1" as="geometry">
            <mxPoint x="30" y="30" as="sourcePoint" />
            <mxPoint y="30" as="targetPoint" />
          </mxGeometry>
        </mxCell>
        <mxCell id="9AYwzwZM53dPQlKz6TOB-27" value="N&#39;" style="text;html=1;align=center;verticalAlign=middle;resizable=0;points=[];autosize=1;strokeColor=none;fillColor=none;" parent="9AYwzwZM53dPQlKz6TOB-29" vertex="1">
          <mxGeometry y="30" width="30" height="30" as="geometry" />
        </mxCell>
        <mxCell id="9AYwzwZM53dPQlKz6TOB-28" value="N" style="text;html=1;align=center;verticalAlign=middle;resizable=0;points=[];autosize=1;strokeColor=none;fillColor=none;" parent="9AYwzwZM53dPQlKz6TOB-29" vertex="1">
          <mxGeometry x="50" width="30" height="30" as="geometry" />
        </mxCell>
        <mxCell id="9AYwzwZM53dPQlKz6TOB-30" value="" style="group" parent="1" vertex="1" connectable="0">
          <mxGeometry x="360" width="80" height="70" as="geometry" />
        </mxCell>
        <mxCell id="9AYwzwZM53dPQlKz6TOB-19" value="" style="endArrow=classic;startArrow=classic;html=1;rounded=0;" parent="9AYwzwZM53dPQlKz6TOB-30" edge="1">
          <mxGeometry width="50" height="50" relative="1" as="geometry">
            <mxPoint x="60" y="40" as="sourcePoint" />
            <mxPoint x="40" y="60" as="targetPoint" />
          </mxGeometry>
        </mxCell>
        <mxCell id="9AYwzwZM53dPQlKz6TOB-20" value="N" style="text;html=1;align=center;verticalAlign=middle;resizable=0;points=[];autosize=1;strokeColor=none;fillColor=none;" parent="9AYwzwZM53dPQlKz6TOB-30" vertex="1">
          <mxGeometry x="50" y="40" width="30" height="30" as="geometry" />
        </mxCell>
        <mxCell id="9AYwzwZM53dPQlKz6TOB-21" value="" style="shape=parallelogram;perimeter=parallelogramPerimeter;whiteSpace=wrap;html=1;fixedSize=1;fillColor=#ffe6cc;strokeColor=#d79b00;" parent="9AYwzwZM53dPQlKz6TOB-30" vertex="1">
          <mxGeometry y="40" width="50" height="20" as="geometry" />
        </mxCell>
        <mxCell id="9AYwzwZM53dPQlKz6TOB-22" value="" style="endArrow=classic;startArrow=classic;html=1;rounded=0;" parent="9AYwzwZM53dPQlKz6TOB-30" edge="1">
          <mxGeometry width="50" height="50" relative="1" as="geometry">
            <mxPoint x="50" y="30" as="sourcePoint" />
            <mxPoint x="20" y="30" as="targetPoint" />
          </mxGeometry>
        </mxCell>
        <mxCell id="9AYwzwZM53dPQlKz6TOB-23" value="N&#39;" style="text;html=1;align=center;verticalAlign=middle;resizable=0;points=[];autosize=1;strokeColor=none;fillColor=none;" parent="9AYwzwZM53dPQlKz6TOB-30" vertex="1">
          <mxGeometry x="20" width="30" height="30" as="geometry" />
        </mxCell>
      </root>
    </mxGraphModel>
  </diagram>
</mxfile>
